<?xml version="1.0" encoding="UTF-8"?>
<svg version="1.1" xmlns="http://www.w3.org/2000/svg" width="224" height="224">
<path d="M0 0 C73.92 0 147.84 0 224 0 C224 73.92 224 147.84 224 224 C150.08 224 76.16 224 0 224 C0 150.08 0 76.16 0 0 Z " fill="#FEFEFE" transform="translate(0,0)"/>
<path d="M0 0 C9.86152039 6.13057851 15.3414096 14.58914422 18.53125 25.64453125 C19.70830879 36.94977035 18.07052442 47.27580855 11.21875 56.51953125 C10.01973999 57.92090582 8.79175639 59.29820315 7.53125 60.64453125 C7.00789063 61.20914063 6.48453125 61.77375 5.9453125 62.35546875 C-1.88453838 69.87976447 -11.58747389 72.41337997 -22.17358398 72.23168945 C-32.71478351 71.67651567 -40.71653411 67.46539866 -48.2734375 60.17578125 C-55.70095228 51.61167168 -58.96311179 41.99748438 -58.7109375 30.76171875 C-57.89207197 20.22212694 -53.97399877 12.06524645 -46.43359375 4.640625 C-32.44004132 -7.11802251 -15.96635529 -8.76633748 0 0 Z " fill="#A90185" transform="translate(177.46875,122.35546875)"/>
<path d="M0 0 C1.59358288 1.29055258 3.17076571 2.60128913 4.74609375 3.9140625 C9.49242133 7.4348613 15.01201966 7.78322019 20.74609375 8.4140625 C22.73182561 14.67401539 23.77184035 20.99981025 24.80859375 27.4765625 C24.98197266 28.53939453 25.15535156 29.60222656 25.33398438 30.69726562 C25.66457709 32.72515424 25.99361135 34.75329778 26.32080078 36.78173828 C26.78596849 39.66086469 27.26258951 42.53795996 27.74609375 45.4140625 C26.88886719 45.84976563 26.03164062 46.28546875 25.1484375 46.734375 C13.00613544 52.91470777 13.00613544 52.91470777 4.74609375 63.4140625 C1.04669304 62.80976639 -1.95294542 61.76382476 -5.31640625 60.12109375 C-6.27281006 59.65807861 -7.22921387 59.19506348 -8.21459961 58.71801758 C-9.7190564 57.97974731 -9.7190564 57.97974731 -11.25390625 57.2265625 C-13.31738912 56.22590397 -15.38118965 55.22590023 -17.4453125 54.2265625 C-18.44062988 53.74316406 -19.43594727 53.25976562 -20.46142578 52.76171875 C-25.69117835 50.23783047 -30.96826795 47.81846994 -36.25390625 45.4140625 C-36.24230469 44.26808594 -36.23070313 43.12210938 -36.21875 41.94140625 C-36.20936383 40.41145998 -36.20026452 38.88151192 -36.19140625 37.3515625 C-36.18302734 36.59939453 -36.17464844 35.84722656 -36.16601562 35.07226562 C-36.14582284 30.40773132 -36.47794666 26.01483077 -37.25390625 21.4140625 C-36.05603893 20.656172 -34.85810787 19.89838224 -33.66015625 19.140625 C-32.88422119 18.64965332 -32.10828613 18.15868164 -31.30883789 17.65283203 C-29.59587363 16.57087372 -27.88149974 15.49114414 -26.16577148 14.41357422 C-21.93864524 11.75688159 -17.73030894 9.08115901 -13.5703125 6.3203125 C-12.85101563 5.85028809 -12.13171875 5.38026367 -11.390625 4.89599609 C-10.02932121 4.00544449 -8.6760609 3.10244907 -7.33203125 2.18603516 C-2.82330159 -0.73396055 -2.82330159 -0.73396055 0 0 Z " fill="#FEFEFE" transform="translate(120.25390625,72.5859375)"/>
<path d="M0 0 C7.61246166 8.14356364 10.07519284 15.54755456 9.96484375 26.484375 C9.38370465 33.58900507 6.55644013 40.07919051 1.625 45.26953125 C-5.79376144 51.41693236 -13.39374068 53.84267427 -22.9765625 53.3984375 C-28.10717666 52.59339968 -32.02097855 50.73865849 -36.3125 47.875 C-36.89644531 47.50246094 -37.48039062 47.12992188 -38.08203125 46.74609375 C-43.39335006 42.88698363 -47.14686227 36.3154428 -48.3125 29.875 C-49.23865514 19.36975454 -48.23557098 11.78875056 -41.41015625 3.58984375 C-29.71106169 -8.78290309 -14.02281864 -8.99577045 0 0 Z " fill="#01BCD3" transform="translate(75.3125,84.125)"/>
<path d="M0 0 C4.55676112 2.58923505 7.68021087 5.63208223 10.625 9.9375 C11.24375 10.80375 11.8625 11.67 12.5 12.5625 C14.77986805 19.40210414 14.74299908 27.07659068 12.0625 33.8125 C9.01384755 39.6521723 4.17827334 45.20413182 -2.1640625 47.5 C-9.5477706 48.96108712 -18.019232 49.34843314 -24.6328125 45.33203125 C-30.88713657 40.32576737 -35.69694769 34.30858853 -36.72265625 26.18359375 C-37.13635513 17.87779319 -35.31709893 11.36650901 -29.73046875 5.08984375 C-21.3347766 -2.62357997 -10.50452424 -4.80071018 0 0 Z " fill="#FECD01" transform="translate(150.375,33.0625)"/>
<path d="M0 0 C4.71331877 0.56118326 8.25041555 1.89501356 12.46484375 4.0546875 C13.06124161 4.35690216 13.65763947 4.65911682 14.27210999 4.9704895 C16.16454043 5.9310998 18.05116504 6.90248309 19.9375 7.875 C21.82125422 8.83828615 23.70617125 9.7992196 25.59217834 10.75808716 C27.30704129 11.63116664 29.0187309 12.51047089 30.73022461 13.39013672 C34.11329535 15.0557806 37.52249327 16.54432509 41 18 C40.34 19.98 39.68 21.96 39 24 C34.16558045 23.35513438 30.21976683 21.37204658 25.890625 19.25390625 C25.12320984 18.88273178 24.35579468 18.51155731 23.56512451 18.12913513 C21.9500699 17.34602383 20.33642602 16.5599972 18.72412109 15.77124023 C16.24869687 14.56186335 13.76733496 13.3653631 11.28515625 12.16992188 C9.7157738 11.40701484 8.14675044 10.64336858 6.578125 9.87890625 C5.83338928 9.52051163 5.08865356 9.162117 4.3213501 8.79286194 C-0.88509125 6.2298175 -0.88509125 6.2298175 -2 4 C-1.0625 1.875 -1.0625 1.875 0 0 Z " fill="#C3C7D2" transform="translate(83,118)"/>
<path d="M0 0 C0.66 1.65 1.32 3.3 2 5 C-9.62835967 13.6906688 -22.38818871 20.84932486 -35 28 C-35.99 26.02 -36.98 24.04 -38 22 C-33.42944892 19.10821293 -28.85697734 16.21952828 -24.28125 13.3359375 C-20.93949475 11.22901944 -17.60624571 9.10981868 -14.28125 6.9765625 C-12.85419819 6.06765884 -11.42711645 5.15880217 -10 4.25 C-9.00516602 3.60538818 -9.00516602 3.60538818 -7.99023438 2.94775391 C-3.33909025 0 -3.33909025 0 0 0 Z " fill="#C3C7D2" transform="translate(117,67)"/>
<path d="M0 0 C0.85902541 4.6256386 1.71338921 9.25210496 2.56347656 13.87939453 C2.85321682 15.4528721 3.14422136 17.02611742 3.43652344 18.59912109 C3.85685853 20.86235392 4.27261466 23.12638764 4.6875 25.390625 C4.81874268 26.09181458 4.94998535 26.79300415 5.08520508 27.51544189 C5.6761639 30.76422907 6 33.68038834 6 37 C3.03 37.495 3.03 37.495 0 38 C-2.2483715 32.18246478 -3.0853089 26.18945107 -4.0625 20.0625 C-4.23587891 19.00353516 -4.40925781 17.94457031 -4.58789062 16.85351562 C-5.44715268 11.57613222 -6.26916092 6.29669972 -7 1 C-2.25 0 -2.25 0 0 0 Z " fill="#C5C8D2" transform="translate(148,80)"/>
</svg>
